<?xml version="1.0" encoding="utf-8"?>
<!-- Generator: Adobe Illustrator 24.3.0, SVG Export Plug-In . SVG Version: 6.00 Build 0)  -->
<svg version="1.1" id="Layer_1" xmlns="http://www.w3.org/2000/svg" xmlns:xlink="http://www.w3.org/1999/xlink" x="0px" y="0px"
	 viewBox="0 0 1600 1600" style="enable-background:new 0 0 1600 1600;" xml:space="preserve">
<g transform="translate(0.000000,1600.000000) scale(0.100000,-0.100000)">
	<path d="M2180,10085c0-1466,2-2665,4-2665s16,21,31,48c16,26,73,117,128,202c135,209,153,237,232,365c37,61,78,126,90,145
		c107,166,157,245,194,305c23,39,80,131,128,205c47,74,101,160,120,190c18,30,96,154,173,275c76,121,182,290,235,375
		s130,207,171,270s84,132,94,152c20,36,20,64,20,1411v1374l-92,7c-50,3-414,6-810,6h-718V10085z"/>
	<path d="M5171,11688c-5-13-46-84-92-158c-142-232-216-352-267-435c-27-44-73-118-102-165s-76-123-104-170c-58-95-111-182-170-274
		c-21-33-48-77-60-97c-65-110-141-235-146-239c-3-3-29-43-57-90c-58-98-136-225-178-290c-16-25-40-65-53-90c-14-25-30-52-37-60
		c-14-17-185-300-185-306c0-3-22-37-48-77c-26-39-83-132-127-204c-44-73-92-152-107-175c-15-24-33-54-41-68s-59-98-113-186
		c-95-156-148-241-329-534c-46-74-121-197-167-273c-45-75-95-156-110-180c-15-23-31-49-35-57s-30-51-58-95c-29-44-107-172-175-285
		c-67-113-137-227-155-255c-18-27-42-66-53-85c-10-19-57-96-103-170c-45-74-124-202-174-285c-50-82-107-175-126-205s-41-67-49-81
		s-55-91-103-170c-49-79-124-202-167-274c-44-71-84-137-90-145c-5-8-31-49-57-90c-25-41-68-110-95-152c-26-42-48-81-48-85
		c0-6,2035-10,2085-4c6,0,19,18,30,39c11,20,42,73,69,117s84,136,126,205c64,104,217,353,714,1158c28,46,56,91,61,100
		c6,9,50,82,99,162s125,204,169,275c43,72,103,168,132,215c76,122,429,699,581,950c19,30,67,109,108,175s127,206,190,310
		c64,105,143,233,175,285c33,52,76,122,95,155c20,33,63,103,95,155c33,52,79,127,102,165c39,65,144,236,274,445
		c28,47,107,175,175,285c67,110,138,225,157,255c53,85,323,525,445,725c60,99,129,211,154,249c24,39,42,71,41,73c-2,1-320,7-708,12
		c-387,6-856,13-1042,16l-337,6L5171,11688z"/>
	<path d="M8327,7785l3-856l455,1c479,0,563,7,675,49c167,64,274,186,300,345c20,126-21,289-93,365c-44,46-145,111-174,111
		c-36,0-40,27-7,52c147,111,210,248,185,400c-33,200-162,321-394,369c-82,17-140,19-522,19h-430L8327,7785z M9205,8291
		c64-27,105-92,105-165c0-55-45-119-105-150c-37-19-60-21-277-25l-238-3v179c0,99,2,182,4,184C8705,8321,9177,8303,9205,8291z
		 M9282,7618c81-38,118-91,118-170c0-49-5-67-30-102c-54-80-103-90-464-95l-216-3v195c0,147,3,197,13,201c6,3,127,4,267,3
		C9221,7644,9226,7644,9282,7618z"/>
	<path d="M10080,7787c0-470,2-856,4-858s293-3,645-1l641,2v160v160h-459h-459l-6,103c-3,56-2,142,2,190l7,88l393-1h392v165v165h-400
		h-400v138c0,75,3,154,6,175l7,37h448h449v165v165h-635h-635V7787z"/>
	<path d="M11720,7781c0-783,1-863,16-857c9,3,298,6,642,6h627l3,160l4,160l-464,2l-463,3l-3,190l-2,190h397h398l3,163l2,162h-400
		h-400v175v175h449h448l8,156c4,85,5,158,2,160c-2,3-288,7-636,11l-631,6V7781z"/>
	<path d="M13310,7783c0-468,3-853,8-855c4-2,87-2,185,0l177,3v272v272l145-1h145l181-272l181-272h101c56,0,153-3,215-7
		c84-4,112-3,112,6c0,11-24,47-129,196c-19,28-77,112-128,188c-50,75-104,152-118,171c-14,18-25,38-25,44s30,25,68,43
		c47,22,87,52,132,99c110,113,150,221,150,408c0,94-4,126-24,185c-49,145-114,223-237,283c-155,77-220,84-737,87l-402,2V7783z
		 M14175,8290c59-20,107-62,139-120c24-43,28-64,28-124c0-61-4-79-25-112c-36-57-75-90-135-113c-48-19-74-21-284-21h-230l6,31
		c3,17,6,133,6,256v225l228-5C14059,8304,14148,8298,14175,8290z"/>
	<path d="M4853,5808l2-553h35h35l-1,202l-1,202l196-2c168-1,204,1,251,17c129,44,193,93,247,190c25,45,28,61,28,141
		c-1,133-28,197-114,268c-92,75-123,81-418,85l-261,3L4853,5808z M5395,6265c64-24,149-107,164-161c20-71,14-155-15-212
		c-35-70-83-108-177-137c-71-23-94-25-258-25h-179v158c0,88-3,214-7,281l-6,123l214-4C5306,6284,5354,6280,5395,6265z"/>
	<path d="M5890,5804v-555l36,3l37,3l1,220l2,220l32-1c17,0,103-1,190-2l159-2l63-82c91-118,249-309,277-335c26-24,86-32,99-12
		c3,6-9,27-28,47c-19,21-50,57-69,82s-82,103-141,174c-60,72-108,135-108,141s27,15,59,22c95,18,191,93,233,183c28,60,30,167,4,235
		c-39,103-109,162-235,197c-56,15-105,18-338,18h-273V5804z M6510,6261c105-43,161-122,161-230c1-111-54-187-168-232
		c-55-22-71-23-298-24h-240l-3,259l-2,258l247-4C6436,6284,6459,6282,6510,6261z"/>
	<path d="M7340,6337c-224-75-380-283-380-507c1-153,33-259,107-357c104-135,236-199,434-210c93-5,114-3,174,17
		c118,39,213,106,281,197c58,77,81,127,99,212c29,141,11,276-55,400c-38,71-131,163-207,204C7668,6360,7468,6380,7340,6337z
		 M7660,6263c382-106,450-658,106-860c-126-73-279-90-407-42c-155,57-236,136-295,290c-24,64-26,79-22,182c4,106,6,116,42,189
		c58,117,127,180,256,232C7432,6291,7547,6295,7660,6263z"/>
	<path d="M8363,5808l2-553l38-3l38-3l-2,203l-1,203l198,1c212,1,241,6,352,63c156,79,216,285,136,459c-20,43-87,108-139,134
		c-81,42-129,48-382,48h-242L8363,5808z M8902,6266c61-23,127-82,156-138c49-100,19-249-65-315c-82-66-126-76-350-81l-203-4v250
		c0,137-3,264-6,282l-7,32l214-4C8813,6284,8864,6280,8902,6266z"/>
	<path d="M9400,5812c0-302,2-551,4-553s180-3,395-1l391,2v35v35h-355h-355l-2,205c-1,113-2,212-2,221c-1,14,33,15,317,14l317-1v34
		v34l-92,7c-50,3-192,6-315,6h-223v183c0,100-3,199-6,220l-7,37h356c383,0,367-2,367,51c0,18-12,19-395,19h-395V5812z"/>
	<path d="M10482,5808l3-553l38-3l37-3v227v226l23-6c12-3,97-6,188-6h166l63-82c89-116,258-319,282-340c20-17,88-25,101-12
		c3,4-12,27-33,53c-149,173-320,386-317,395c2,5,29,16,61,23c106,24,186,88,229,182c29,66,29,187-2,257c-25,58-77,113-136,143
		c-87,44-143,51-432,51h-273L10482,5808z M11101,6262c225-89,220-384-8-465c-51-18-86-21-295-25l-238-4v179c0,98-3,216-7,262l-6,83
		l249-4C11023,6284,11050,6282,11101,6262z"/>
	<path d="M11520,6325v-35h194h194l7-468c4-258,4-492,0-520l-7-52h41h41v520v520l188,2l187,3l3,33l3,32h-425h-426V6325z"/>
	<path d="M12600,5805v-555h38h37v555v555h-37h-38V5805z"/>
	<path d="M13034,6344c3-9,6-259,6-556v-541l385,5c211,2,386,6,389,8c2,3,6,19,8,35l3,30l-355,1l-355,2l-3,221l-2,221h315h316l-3,35
		l-3,35l-305,2c-189,2-308,7-312,13s-8,106-8,223v212h355h355v35v35h-396C13067,6360,13028,6358,13034,6344z"/>
	<path d="M14237,6338c-76-26-157-100-187-170c-42-98-12-224,67-285c61-47,147-78,358-129c145-35,208-70,240-135c31-60,31-90,1-155
		c-26-57-57-83-137-115c-133-54-403,4-499,106c-26,27-49,32-68,13c-23-23-12-53,35-88c109-82,244-124,403-123c98,0,109,2,174,33
		c122,59,186,147,186,259c0,153-111,242-375,301c-213,49-274,79-316,162c-25,49-24,72,5,135c28,60,81,103,158,129
		c114,38,329-9,429-93c21-18,48-7,55,23c5,18,0,29-17,44c-34,29-140,77-208,95C14456,6367,14310,6364,14237,6338z"/>
	<path d="M12850,4465c0-277,1-296,18-293c16,3,17,25,17,293s4.4,293-17,293C12851,4761,12850,4742,12850,4465z"/>
	<path d="M13372,4468c3-253,5-293,18-293s15,33,15,242l-1,242l24-22c13-12,77-101,141-197c157-235,183-270,197-270
		c12,0,27,213,20,275c-2,17-4,94-5,173c-1,119-3,142-16,142s-15-35-15-255c0-211-2-253-14-249c-7,3-18,16-24,29
		c-12,25-147,233-232,355c-58,83-89,120-102,120C13373,4760,13371,4628,13372,4468z"/>
	<path d="M14422,4743c-62-22-134-99-155-166c-33-106-15-252,40-317c50-60,98-82,187-87c97-6,160,6,164,30c3,15-2,17-40,10
		c-79-14-184-7-220,15c-71,44-100,101-106,207c-5,97,8,150,51,207c26,34,45,47,96,64c69,24,111,23,174-3c41-18,57-12,41,15
		C14629,4757,14500,4771,14422,4743z"/>
</g>
<rect x="1289.4" y="1125.2" width="3.7" height="3.7"/>
</svg>
